<?xml version="1.0" encoding="UTF-8" standalone="no"?><svg xmlns:svg="http://www.w3.org/2000/svg" xmlns="http://www.w3.org/2000/svg" version="1.1" id="ts" xml:space="preserve" width="2048" height="2048" viewBox="0 0 2048 2048">
  
      <g id="scale" transform="scale(0.33061747009832965)"><path id="c2" d="M4599 1520.64C4480.296 1568.664 4384.58 1618.334 4285 1683.586 4125.456 1788.13 4058.57 1854.696 3952.996 2014 3882.736 2120.018 3829.586 2214.738 3798.97 2288.5L3789.216 2312 3781.738 2312C3771.47 2312 3764.838 2314.864 3760.79 2321.042 3757.644 2325.84 3757.564 2329.27 3759.788 2363.63 3771.198 2539.922 3793.044 2748.41 3824.998 2986 3843.722 3125.23 3849.37 3180.17 3856.968 3297 3865.832 3433.286 3867.18 3500.776 3863.244 3611 3861.476 3660.5 3858.664 3753.65 3856.998 3818 3850.63 4063.808 3843.762 4280.386 3839.97 4355 3838.908 4375.9 3838.03 4403.574 3838.02 4416.5 3837.996 4445.658 3838.836 4446.886 3860.274 4449.002 3870.9 4450.05 3887.25 4454.784 3919 4466.004 3975.12 4485.836 4010.862 4497.492 4051 4509.056 4219.13 4557.486 4419.586 4591.882 4627 4607.892 4681.26 4612.08 4782.746 4614.842 4884 4614.884 5120.428 4614.984 5304.162 4597.736 5513 4555.838 5635.088 4531.344 5720.454 4507.36 5863 4457.506 5874 4453.658 5889.04 4449.878 5896.422 4449.104 5905.114 4448.194 5911.634 4446.29 5914.922 4443.704 5919.668 4439.97 5919.998 4438.578 5919.962 4422.354 5919.94 4412.81 5919.072 4389.25 5918.03 4370 5914.102 4297.346 5907.092 4081.132 5900.976 3844 5899.288 3778.55 5896.578 3685.184 5894.954 3636.522 5890.524 3503.82 5891.31 3442.336 5899.078 3314 5905.726 3204.168 5913.002 3129.848 5928.154 3017 5932.586 2984 5939.716 2930.9 5943.998 2899 5963.934 2750.53 5985.66 2534.528 5997.09 2371.186L6000.296 2325.374 5994.168 2319.244C5989.454 2314.53 5985.71 2312.87 5977.966 2312.058L5967.894 2311 5955.906 2283C5922.934 2205.994 5874.992 2120.874 5804.958 2014.992 5747.572 1928.23 5707.986 1877.754 5659.084 1828.986 5550.872 1721.066 5354.422 1599.272 5168 1524.522 5119.862 1505.22 5119.504 1505.12 5112.41 1508.788 5108.596 1510.76 5105.082 1515.28 5102.256 1521.85 5099.878 1527.374 5096.254 1532.794 5094.2 1533.892 5088.69 1536.842 5040.974 1545.292 5010 1548.804 4907.27 1560.452 4770.966 1556.67 4687 1539.842 4676 1537.636 4665.572 1535.406 4663.828 1534.886 4662.082 1534.364 4658.512 1529.364 4655.894 1523.774 4650.932 1513.178 4643.756 1505.974 4638.23 1506.038 4636.454 1506.058 4618.8 1512.63 4599 1520.64" stroke="none" fill="#0057b7" ElementName="BACK" active="true" style=""/><path id="c1" d="M1570.838 1606.984C1386.352 1702.358 1242.124 1840.086 1164.264 1995.234 1141.146 2041.302 1131.676 2066.932 1099.766 2169.804 1074.392 2251.604 1063.38 2282.916 1049.962 2311.428 1023.864 2366.874 985.738 2406.76 937.766 2428.798 929.646 2432.528 912.2 2439.368 899 2443.996 885.8 2448.626 873.426 2453.81 871.5 2455.516 866.14 2460.268 867 2473.326 876.958 2538.43 881.886 2570.644 888.196 2616.35 890.98 2640 897.312 2693.774 905.116 2753.084 919.006 2853 953.79 3103.192 963.758 3197.186 968.116 3316 971.072 3396.614 969.114 3459.96 958.968 3612 945.008 3821.222 920 4248.51 920 4277.816 920 4306.718 922.526 4306.772 1119 4282.148 1286.364 4261.17 1484.754 4242.268 1604 4235.938 1706.418 4230.5 2191.296 4230.43 2286 4235.84 2428.784 4243.996 2635.19 4264.058 2814 4287.16 2901.84 4298.51 2915.818 4299.964 2937.23 4299.982 2954.684 4299.998 2958.184 4299.432 2962.73 4295.854 2967.79 4291.876 2968 4290.918 2968 4271.896 2968 4260.996 2963.488 4174.438 2957.974 4079.54 2943.692 3833.728 2940.716 3784.34 2934.026 3682 2922.922 3512.178 2922.052 3497.042 2919.95 3437.306 2918.484 3395.662 2918.484 3360.286 2919.944 3320.306 2924.372 3199.17 2933.614 3111.672 2968.988 2856 2985.94 2733.48 2992.21 2685.844 2998.08 2635 3000.366 2615.2 3006.72 2569.33 3012.2 2533.068 3017.682 2496.806 3021.904 2465.338 3021.582 2463.138 3020.712 2457.16 3011.082 2451.662 2984.734 2442.1 2939.888 2425.826 2913.56 2410.098 2887.878 2384.24 2848.602 2344.694 2830.996 2306.89 2789.962 2174 2776.544 2130.55 2761.064 2082.884 2755.56 2068.074 2713.606 1955.186 2655.286 1869.904 2553.696 1772.886 2486.524 1708.738 2403.586 1650.684 2312.244 1603.88 2278.708 1586.696 2275.292 1588.174 2266.908 1623.504 2250.848 1691.178 2220.87 1739.17 2176.04 1768.974 2131.924 1798.302 2051.336 1826.746 1972.716 1840.74L1944.43 1845.774 1923.716 1842.002C1844.976 1827.664 1788.206 1809.758 1736 1782.796 1677.996 1752.842 1640.188 1701.228 1622.674 1628.088 1616.316 1601.534 1610.786 1592 1601.746 1592 1600.686 1592 1586.778 1598.742 1570.838 1606.984" stroke="none" fill="#0057b7" ElementName="FRONT" active="true" style=""/><path id="c4" d="M3223 287.33C3217.5 290.158 3196.35 301.508 3176 312.552 3155.65 323.596 3107.05 348.996 3068 368.998 2974.508 416.884 2955.302 428.344 2902 468.06 2769.31 566.93 2605.914 721.792 2401.944 942 2294.978 1057.482 2212.13 1145.936 2149.012 1212.046 2048.004 1317.84 2050 1315.638 2050 1321.3 2050 1328.45 2059.038 1336.168 2075.298 1342.906 2101.886 1353.92 2160.32 1384.776 2168.908 1392.338 2179.906 1402.018 2188.946 1415.636 2202.672 1443.202 2216.324 1470.616 2220.528 1483.066 2226.826 1514.708 2232.288 1542.158 2234.158 1547.182 2239.498 1548.772 2241.424 1549.344 2282.6 1550.376 2331 1551.062 2434.882 1552.536 2439.552 1552.732 2471.988 1556.984 2613.794 1575.572 2725.924 1615.486 2874 1700.086 2961.876 1750.292 3001.36 1781.792 3046.144 1837.42 3081.57 1881.426 3105.37 1919.744 3134.992 1980.468 3160.632 2033.032 3178.204 2076.196 3191.388 2119 3203.68 2158.906 3206.204 2164.898 3212.044 2168.024 3217.506 2170.948 3226.842 2166.6 3258 2146.62 3271.75 2137.802 3292.278 2125.28 3303.616 2118.794 3314.956 2112.308 3350.056 2089.866 3381.616 2068.926 3486.356 1999.432 3585.818 1940.424 3669.6 1898.07 3698.532 1883.444 3724.182 1869.876 3726.6 1867.916L3731 1864.354 3731.508 1249.676C3731.786 911.604 3731.336 620.69 3730.508 603.202L3729 571.404 3675 544.124C3585.418 498.87 3483.884 438.736 3385.938 372.924 3361.154 356.27 3331.904 337.408 3320.938 331.004 3309.972 324.602 3291.008 313.29 3278.796 305.864 3255.784 291.876 3237.282 281.932 3234.566 282.094 3233.704 282.144 3228.5 284.5 3223 287.33" stroke="none" fill="#003865" ElementName="LEFT SLEEVE" active="true" style=""/><path id="c3" d="M619.926 299.21C604.016 308.798 580.2 322.934 567 330.626 553.8 338.318 527.7 355.17 509 368.076 440.282 415.502 301.088 499.39 241.904 529.048 200.668 549.712 163.296 569.968 159.434 573.75 152.746 580.3 152.22 648.516 154.092 1265.788 155.746 1810.838 156.182 1862.888 159.134 1866.148 160.91 1868.112 183.208 1880.276 208.682 1893.18 269.924 1924.2 302.3 1942.208 365.988 1980.676 431.4 2020.186 458.812 2037.588 505.292 2069.108 525.254 2082.646 553.604 2100.694 568.292 2109.216 582.982 2117.74 609.754 2134.094 627.786 2145.56 666.234 2170.008 670.098 2171.706 676.98 2167.198 680.874 2164.646 683.784 2157.874 691.036 2134.49 709.6 2074.634 729.69 2024.606 757.496 1969 800.29 1883.418 857.456 1808.242 912.122 1765.66 973.658 1717.726 1116.246 1640.706 1202.618 1608.746 1263.578 1586.19 1335.486 1568.704 1416 1556.862 1443.04 1552.884 1448.058 1552.654 1537 1551.316 1602.632 1550.33 1643.394 1548.694 1650.316 1546.77 1654.728 1545.542 1655.564 1542.952 1660.094 1516.452 1666.576 1478.534 1679.886 1445.964 1703.464 1410.316 1717.992 1388.35 1721.036 1386.42 1804.548 1346.204 1836.184 1330.97 1840.752 1326.878 1836.008 1318.016 1832.33 1311.144 1808.804 1285.538 1734.926 1208 1668.99 1138.798 1593.206 1057.96 1478.06 934 1271.26 711.372 1107.02 556.588 976.566 461.38 923.67 422.774 916.36 418.486 814 366.024 776.05 346.574 725.65 320.212 702 307.444 678.35 294.678 656.716 283.68 653.926 283.006 649.9 282.034 642.864 285.388 619.926 299.21" stroke="none" fill="#003865" ElementName="RIGHT SLEEVE" active="true" style=""/><path id="c16" d="M4749 320.002C4677.786 322.974 4539.642 335.016 4381 352.08 4228.042 368.534 4193.028 372.49 4089 385.07 4039.5 391.058 3970.2 398.674 3935 401.998 3899.8 405.322 3867.006 408.61 3862.126 409.304 3852.198 410.716 3844 417.394 3844 424.066 3844 426.402 3847.788 445.568 3852.42 466.656L3860.84 505 3853.248 792C3849.074 949.85 3845.51 1098.544 3845.328 1122.43 3845.006 1165.162 3845.074 1165.932 3849.554 1170.43L3854.11 1175 4365.84 1176.662C4647.29 1177.576 5108.422 1177.576 5390.576 1176.662 5899.56 1175.014 5903.616 1174.968 5908.074 1171L5912.568 1167 5911.262 1087C5910.544 1043 5906.86 894.056 5903.076 756.014L5896.194 505.028 5903.888 471.014C5915.14 421.28 5915.09 421.76 5909.462 415.688 5903.878 409.662 5902.756 409.464 5843 403.956 5785.656 398.672 5742.918 393.97 5643 381.954 5421.652 355.336 5174.216 330.284 5052 322.114 5012.124 319.45 4798 317.956 4749 320.002" stroke="none" fill="#003865" ElementName="POCKET" active="true" style=""/><path id="c59" d="M290.604 2321.714C270.538 2338.512 272.502 2328.416 271.096 2422 269.482 2529.38 266.076 3593.996 265.854 4059.968L265.682 4420.938 271.872 4426.468C277.54 4431.534 279.412 4432 294.062 4432 308.852 4432 313.038 4430.928 349.53 4417.796 505.444 4361.688 669.674 4313.204 718.36 4308.91 730.782 4307.816 734.552 4306.67 738.078 4302.916L742.436 4298.278 742.218 3960.638C741.938 3528.834 738.52 2620.464 736.83 2528.462L735.534 2457.924 730.266 2453.736C725.402 2449.868 723.24 2449.63 702 2450.636 686.64 2451.362 665.38 2454.492 638 2460.058 547.546 2478.446 490.6 2471.2 438.04 2434.618 430.862 2429.622 399.73 2400.024 368.786 2368.772 323.94 2323.482 311.524 2312 307.39 2312 304.118 2312 297.93 2315.58 290.604 2321.714" stroke="none" fill="#0057b7" ElementName="RIGHT SIDE PANEL" active="true" style=""/><path id="c60" d="M3553.516 2368.674C3497.558 2424.788 3485.228 2435.656 3463.96 2447.604 3439.682 2461.242 3398.494 2470.054 3358.336 2470.198 3340.85 2470.26 3328.336 2468.578 3289 2460.88 3257.064 2454.63 3233.6 2451.16 3218.886 2450.506 3197.66 2449.566 3196.548 2449.722 3191.126 2454.384L3185.478 2459.242 3183.674 2812.122C3182.682 3006.204 3181.674 3420.348 3181.434 3732.442 3181.002 4297.58 3181.016 4299.898 3185 4303.64 3187.934 4306.394 3194.454 4308.004 3209.448 4309.672 3261.22 4315.43 3395.258 4355.212 3573.622 4417.756 3609.058 4430.18 3616.032 4432 3628.222 4432 3642.836 4432 3652.546 4428.674 3654.758 4422.91 3657.426 4415.956 3653.656 2357.01 3650.952 2344.654 3648.82 2334.908 3623.484 2312 3614.836 2312 3611.206 2312 3596.216 2325.854 3553.516 2368.674" stroke="none" fill="#0057b7" ElementName="LEFT SIDE PANEL" active="true" style=""/><path id="c5" d="M1038.348 94.628C1035.868 97.27 1034 101.85 1034 105.292 1034 110.808 1052.146 181.196 1069.11 241.49 1072.9 254.96 1076 267.816 1076 270.06 1076 272.304 1066.944 307.182 1055.876 347.57 1044.808 387.956 1035.264 425.5 1034.67 431 1033.696 439.982 1034.134 441.51 1038.954 446L1044.322 451 1945.334 451 2846.346 451 2851.174 445.388C2853.828 442.302 2856 438.41 2856 436.74 2856 435.07 2846.116 397.198 2834.034 352.582L2812.066 271.46 2816.946 252.23C2819.628 241.654 2829.514 204.738 2838.912 170.194 2848.31 135.65 2856 106.244 2856 104.848 2856 103.45 2853.67 99.538 2850.822 96.154L2845.644 90 1944.17 90 1042.698 90 1038.348 94.628" stroke="none" fill="#0057b7" ElementName="COLLAR" active="true" style=""/><path id="c6" d="M3771.7031 2538.092l2128.602 805.6135 2.818-44.86 5.8645-84.9978 7.5782-84.5028 10.5105-84.5028 11.9576-84.6551 11.5768-85.6072 9.1395-73.9161-2023.5732-765.8565-40.9376 63.2915-51.0672 88.5394-32.0646 65.7286-23.7629 56.0178-33.5878 2.0945 5.2552 83.7031 5.8646 78.4859 5.8264 65.424z m2385.0045 2159.0671l37.7768 0 0-37.7769-37.7768 0 0 37.7769z m-6156.7076-4659.3823l37.7768 0 0-37.7768-37.7768 0 0 37.7768z m1970.9827 2906.9491l1040.005-387.5551 16.7939-105.181-33.2832-9.33-32.9786-11.9576-30.8079-15.3087-27.114-18.7361-30.6556-31.8742-24.5244-38.3861-19.9547-43.5652-16.6416-47.0306-14.7375-48.4778-18.1268-60.8922-14.2425-42.9179-793.7321 295.8931 0 565.3194z m-1005.3128 338.0112l952.4176-354.8813 0-565.3575-1016.8133 379.063 8.2637 59.369 21.9349 154.4203 9.9012 76.8865 8.9491 77.0389 7.8829 76.8484 6.8546 76.5056 0.6093 20.1071z" stroke="none" fill="#003865" fill-rule="evenodd" stroke-width="0" ElementName="ELEMENT 1" active="true" style=""/><path id="c7" d="M1918.0875 3386.6614l-970.6205 361.7359-0.457 7.0451-9.825 166.3779-9.4061 166.1495-9.6727 166.1494-2.6657 45.7359 47.0306 2.7799 118.6999-15.4991 83.0938-10.3963 83.1319-9.5965 88.806-8.9492 88.9964-8.1875 75.6298-6.6262 75.5155-5.4837 84.8075-3.6939 85.074-1.7517 74.4873-0.5332 74.5255 0.3428 22.8488 0.3046 0-845.9037z m4238.6201 1310.4977l37.7768 0 0-37.7769-37.7768 0 0 37.7769z m-6156.7076-4659.3823l37.7768 0 0-37.7768-37.7768 0 0 37.7768z m5903.4658 3780.957l-2073.3076-784.6688 1.5233 10.7771 10.5104 84.5028 7.5783 84.5028 5.9026 84.9978 5.2933 84.7694 3.2369 84.5028-0.495 84.6551-3.9986 85.2644-0.0381 1.0663-7.6543 314.5148-9.4442 314.8196-9.1015 179.9349 42.3085 2.1706 38.4623 14.7757 41.8515 15.0421 43.5652 14.471 43.946 13.4428 49.4679 13.7474 49.7725 12.5288 50.2294 11.5006 50.458 10.5105 58.6074 11.1198 58.8358 10.0535 58.9882 8.911 59.1406 7.8067 59.407 6.6262 59.5595 5.4457 51.8288 3.7319 52.1336 2.5134 50.2294 1.2567 51.3719 1.1424 75.7441 3.0846 75.7821-3.0846 51.3338-1.1424 50.2295-1.2567 52.1716-2.5134 51.8289-3.7319 59.5213-5.4457 59.4452-6.6262 59.1405-7.8067 58.9502-8.911 58.8358-10.0535 58.6455-11.1198 50.4199-10.5105 50.2675-11.5006 49.7725-12.5288 49.4678-13.7474 43.908-13.4428 43.5652-14.471 41.8896-15.0421 38.4623-14.7757 42.2704-2.1706-9.1015-179.9349-9.4442-314.8196-3.275-134.8845z m-2956.6835-778.8423l-975.7996 363.6781 0 828.9955 22.8108-0.3046 74.5254-0.3428 74.4874 0.5332 85.074 1.7517 84.8455 3.6939 75.5156 5.4837 75.6298 6.6262 88.9964 8.1875 88.7679 8.9492 83.1318 9.5965 83.1319 10.3963 118.6619 15.4991 47.0687-2.7799-2.7038-45.7359-9.6346-166.1494-9.4442-166.1114-9.787-166.416-11.4244-166.0353-5.2934-82.2559-3.4273-82.0275-0.3808-81.342 2.4753-81.1517 6.8166-76.5056 7.8828-76.8484 8.0733-69.3845z" stroke="none" fill="#ffffff" fill-rule="evenodd" stroke-width="0" ElementName="ELEMENT 2" active="true" style=""/><path id="points" d="M0 0V37.8H37.8V0ZM6156.7 4659.4v37.8h37.8v-37.8z" stroke="none" fill="black" fill-rule="evenodd" stroke-width="2" style="" ElementName="null" active="true"/><g id="subgroupElements" style="display:none"><g id="subgroup_c2"/><g id="subgroup_c1"/><g id="subgroup_c4"/><g id="subgroup_c3"/><g id="subgroup_c16"/><g id="subgroup_c59"/><g id="subgroup_c60"/><g id="subgroup_c5"/><g id="subgroup_c6"/><g id="subgroup_c7"/></g><path id="points" d="M0 0V37.8H37.8V0ZM6156.7 4659.4v37.8h37.8v-37.8z" stroke="none" fill="black" fill-rule="evenodd" stroke-width="2" style="" ElementName="null" active="true"/></g></svg>